<svg xmlns="http://www.w3.org/2000/svg" width="106" height="60" fill="none"><path fill="#2196F3" d="M24.146 21.103h-.003c-2.398 0-4.342 1.727-4.342 3.858v.003c0 2.131 1.944 3.859 4.342 3.859h.003c2.398 0 4.342-1.728 4.342-3.859v-.002c0-2.132-1.944-3.86-4.342-3.86ZM56.195 19.87c-.007-2.96-1.333-5.798-3.688-7.891C50.153 9.886 46.96 8.707 43.63 8.7c-3.332.005-6.526 1.184-8.882 3.277-2.356 2.094-3.682 4.931-3.69 7.892v16.323s25.134-2.488 25.137-16.32v-.003ZM11 41.55c.006 2.06.93 4.033 2.568 5.49 1.638 1.456 3.859 2.277 6.176 2.283 2.317-.006 4.537-.827 6.176-2.283 1.638-1.456 2.562-3.429 2.568-5.488V30.194S11 31.927 11 41.55Zm8.744 2.034c-.453 0-.895-.119-1.272-.343a2.107 2.107 0 0 1-.843-.913 1.825 1.825 0 0 1-.13-1.175c.088-.395.306-.758.626-1.042.32-.285.728-.479 1.172-.557a2.558 2.558 0 0 1 1.323.115c.419.154.776.415 1.028.75s.386.728.386 1.13c.001.268-.057.534-.172.782a2.036 2.036 0 0 1-.496.662c-.212.19-.465.34-.744.443a2.539 2.539 0 0 1-.878.156v-.008ZM35.73 39.941v4.266h-.879V39.94h.88Zm1.7 1.822v.686h-1.94v-.685h1.94Zm.205-1.822v.689H35.49v-.689h2.145Zm4.013 2.033v.203c0 .324-.044.615-.132.873a1.92 1.92 0 0 1-.372.659c-.16.18-.351.317-.574.413-.22.096-.466.144-.735.144-.268 0-.513-.048-.736-.144a1.649 1.649 0 0 1-.574-.413 1.93 1.93 0 0 1-.378-.66 2.696 2.696 0 0 1-.132-.872v-.203c0-.326.044-.617.132-.873.088-.257.212-.477.372-.659a1.63 1.63 0 0 1 .574-.416c.223-.096.468-.143.736-.143.27 0 .514.047.735.143.223.096.414.235.574.416.163.182.288.402.375.66.09.255.135.546.135.873Zm-.888.203v-.208c0-.227-.02-.426-.061-.598a1.295 1.295 0 0 0-.182-.434.785.785 0 0 0-.293-.263.838.838 0 0 0-.395-.091c-.149 0-.28.03-.396.09a.792.792 0 0 0-.29.264 1.338 1.338 0 0 0-.178.434 2.592 2.592 0 0 0-.062.598v.208c0 .224.02.423.062.597.04.172.101.318.181.437a.81.81 0 0 0 .293.266c.115.061.247.091.396.091.148 0 .28-.03.395-.09a.786.786 0 0 0 .29-.267 1.37 1.37 0 0 0 .179-.437c.04-.174.061-.373.061-.597Zm3.742.914a.566.566 0 0 0-.035-.205.387.387 0 0 0-.124-.17 1.092 1.092 0 0 0-.254-.156 3.605 3.605 0 0 0-.425-.158 5.377 5.377 0 0 1-.551-.21 2.265 2.265 0 0 1-.457-.273 1.228 1.228 0 0 1-.31-.366 1.01 1.01 0 0 1-.112-.484 1 1 0 0 1 .117-.483c.078-.147.188-.272.328-.375.141-.106.307-.187.498-.243.194-.057.406-.085.636-.085.315 0 .589.056.823.17.235.113.416.268.545.465.131.198.197.423.197.677h-.873a.658.658 0 0 0-.08-.328.535.535 0 0 0-.234-.225.835.835 0 0 0-.393-.083.908.908 0 0 0-.38.07.508.508 0 0 0-.229.185.455.455 0 0 0-.076.258c0 .072.018.138.053.196a.594.594 0 0 0 .164.164c.072.051.16.1.266.144.106.045.228.089.367.132.232.07.436.15.612.237.178.088.326.187.445.296.12.11.21.233.27.372.06.139.09.296.09.472a1.024 1.024 0 0 1-.422.87c-.136.102-.3.179-.489.231a2.37 2.37 0 0 1-.635.08 2.41 2.41 0 0 1-.624-.082 1.897 1.897 0 0 1-.56-.255 1.286 1.286 0 0 1-.398-.434c-.1-.176-.15-.384-.15-.624h.882c0 .133.02.245.062.337a.562.562 0 0 0 .172.223.742.742 0 0 0 .27.123c.105.025.22.038.346.038a.937.937 0 0 0 .375-.065.462.462 0 0 0 .293-.436Zm3.383-3.15v4.266h-.875V39.94h.875Zm1.313 0v.689h-3.48v-.689h3.48Zm3.363 3.58v.686h-2.27v-.686h2.27Zm-1.983-3.58v4.266h-.88V39.94h.88Zm1.687 1.738v.668h-1.974v-.668h1.974Zm.293-1.738v.689h-2.267v-.689h2.267Zm.516 0h1.59c.327 0 .607.05.842.147.236.097.417.242.544.433.127.192.19.427.19.706 0 .229-.038.425-.116.59a1.103 1.103 0 0 1-.326.407 1.685 1.685 0 0 1-.489.257l-.278.147h-1.383l-.006-.686h1.029a.803.803 0 0 0 .383-.082.538.538 0 0 0 .229-.228.704.704 0 0 0 .079-.34.771.771 0 0 0-.076-.355.514.514 0 0 0-.232-.228.853.853 0 0 0-.39-.08h-.711v3.578h-.88V39.94Zm2.385 4.266-.973-1.901.929-.006.984 1.866v.04h-.94Zm4.614-1.52h-1.087V42h1.087a.89.89 0 0 0 .41-.082.525.525 0 0 0 .232-.235.859.859 0 0 0 0-.691.592.592 0 0 0-.232-.264.76.76 0 0 0-.41-.1h-.782v3.578h-.88V39.94h1.662c.334 0 .62.06.858.182.24.12.424.284.551.495.127.211.19.452.19.724 0 .275-.063.513-.19.715-.127.2-.31.356-.55.465-.239.11-.525.164-.86.164Zm5.068.834v.686h-2.27v-.686h2.27Zm-1.983-3.58v4.266h-.879V39.94h.879Zm1.687 1.738v.668h-1.974v-.668h1.974Zm.293-1.738v.689h-2.267v-.689h2.267Zm2.482 0v4.266h-.876V39.94h.876Zm1.312 0v.689h-3.48v-.689h3.48Zm3.364 3.58v.686h-2.27v-.686h2.27Zm-1.984-3.58v4.266h-.879V39.94h.88ZM72 41.68v.668h-1.975v-.668H72Zm.293-1.738v.689h-2.268v-.689h2.268Zm.515 0H74.4c.326 0 .607.05.84.147.237.097.419.242.546.433.127.192.19.427.19.706 0 .229-.039.425-.117.59a1.103 1.103 0 0 1-.325.407 1.687 1.687 0 0 1-.49.257l-.278.147h-1.383l-.005-.686h1.028a.803.803 0 0 0 .384-.082.538.538 0 0 0 .228-.228.704.704 0 0 0 .08-.34.771.771 0 0 0-.077-.355.514.514 0 0 0-.231-.228.854.854 0 0 0-.39-.08h-.712v3.578h-.879V39.94Zm2.385 4.266-.973-1.901.93-.006.983 1.866v.04h-.94Zm3.68-1.116a.566.566 0 0 0-.035-.205.387.387 0 0 0-.123-.17 1.092 1.092 0 0 0-.255-.156 3.605 3.605 0 0 0-.425-.158 5.377 5.377 0 0 1-.55-.21 2.265 2.265 0 0 1-.458-.273 1.228 1.228 0 0 1-.31-.366 1.01 1.01 0 0 1-.112-.484 1 1 0 0 1 .117-.483c.079-.147.188-.272.329-.375.14-.106.306-.187.498-.243.193-.057.405-.085.635-.085.315 0 .59.056.823.17.235.113.416.268.545.465.131.198.197.423.197.677h-.873a.658.658 0 0 0-.08-.328.535.535 0 0 0-.234-.225.835.835 0 0 0-.392-.083.908.908 0 0 0-.381.07.508.508 0 0 0-.229.185.455.455 0 0 0-.076.258c0 .072.018.138.053.196a.594.594 0 0 0 .164.164c.072.051.161.1.267.144.105.045.227.089.366.132.232.07.436.15.612.237.178.088.326.187.445.296.12.11.21.233.27.372.06.139.09.296.09.472 0 .185-.035.351-.108.498-.072.146-.177.27-.313.372-.137.102-.3.179-.49.231-.189.053-.4.08-.635.08-.211 0-.42-.028-.624-.082a1.896 1.896 0 0 1-.56-.255 1.286 1.286 0 0 1-.398-.434c-.1-.176-.15-.384-.15-.624h.882c0 .133.02.245.062.337a.562.562 0 0 0 .172.223.742.742 0 0 0 .27.123c.106.025.22.038.346.038a.937.937 0 0 0 .375-.065.462.462 0 0 0 .293-.436Z"/></svg>